<svg width="38" height="32" viewBox="0 0 38 32" fill="none" xmlns="http://www.w3.org/2000/svg">
<path d="M19 0C8.50883 0 0 7.34511 0 16.4045C0 23.6525 5.4435 29.8015 12.9944 31.971C13.9428 32.1227 14.25 31.6142 14.25 31.1822V28.1282C8.96483 29.1207 7.86442 26.1925 7.86442 26.1925C6.99992 24.2964 5.75383 23.792 5.75383 23.792C4.02958 22.7735 5.88525 22.7954 5.88525 22.7954C7.79317 22.9102 8.797 24.4864 8.797 24.4864C10.4912 26.9936 13.2414 26.2691 14.326 25.8494C14.4954 24.7899 14.9878 24.0654 15.5325 23.6566C11.3129 23.2397 6.87642 21.833 6.87642 15.5487C6.87642 13.7565 7.619 12.2938 8.83342 11.1455C8.63708 10.7313 7.98633 9.06211 9.01867 6.80376C9.01867 6.80376 10.6147 6.36357 14.2452 8.48522C15.7605 8.12159 17.385 7.93977 19 7.93294C20.615 7.93977 22.2411 8.12159 23.7595 8.48522C27.3869 6.36357 28.9797 6.80376 28.9797 6.80376C30.0137 9.06348 29.3629 10.7326 29.1666 11.1455C30.3857 12.2938 31.122 13.7579 31.122 15.5487C31.122 21.8494 26.6776 23.237 22.4469 23.643C23.1278 24.1515 23.75 25.1494 23.75 26.6805V31.1822C23.75 31.6183 24.054 32.1309 25.0182 31.9696C32.5628 29.7974 38 23.6498 38 16.4045C38 7.34511 29.4928 0 19 0Z" fill="white"/>
</svg>
