<svg width="35" height="31" viewBox="0 0 35 31" fill="none" xmlns="http://www.w3.org/2000/svg">
<path d="M27.7083 0H7.29167C3.26521 0 0 2.89204 0 6.45833V24.5417C0 28.108 3.26521 31 7.29167 31H27.7083C31.7363 31 35 28.108 35 24.5417V6.45833C35 2.89204 31.7363 0 27.7083 0ZM11.6667 24.5417H7.29167V10.3333H11.6667V24.5417ZM9.47917 8.6955C8.07042 8.6955 6.92708 7.67508 6.92708 6.417C6.92708 5.15892 8.07042 4.1385 9.47917 4.1385C10.8879 4.1385 12.0312 5.15892 12.0312 6.417C12.0312 7.67508 10.8894 8.6955 9.47917 8.6955ZM29.1667 24.5417H24.7917V17.3032C24.7917 12.9528 18.9583 13.2822 18.9583 17.3032V24.5417H14.5833V10.3333H18.9583V12.6131C20.9942 9.27287 29.1667 9.02617 29.1667 15.8113V24.5417Z" fill="white"/>
</svg>
